<svg xmlns="http://www.w3.org/2000/svg"><symbol id="close" viewBox="0 0 320.59 320.59"><g fill="#FFF"><path d="M30.391 318.583a30.37 30.37 0 0 1-21.56-7.288c-11.774-11.844-11.774-30.973 0-42.817L266.643 10.665c12.246-11.459 31.462-10.822 42.921 1.424 10.362 11.074 10.966 28.095 1.414 39.875L51.647 311.295a30.366 30.366 0 0 1-21.256 7.288z" data-original="#000000"/><path d="M287.9 318.583a30.37 30.37 0 0 1-21.257-8.806L8.83 51.963C-2.078 39.225-.595 20.055 12.143 9.146c11.369-9.736 28.136-9.736 39.504 0l259.331 257.813c12.243 11.462 12.876 30.679 1.414 42.922-.456.487-.927.958-1.414 1.414a30.368 30.368 0 0 1-23.078 7.288z" data-original="#000000"/></g></symbol><symbol id="components-open" viewBox="0 0 24 24"><path fill="#c0ca33" d="M19 20H4a2 2 0 0 1-2-2V6c0-1.11.89-2 2-2h6l2 2h7c1.097 0 2 .903 2 2H4v10l2.14-8h17.07l-2.28 8.5c-.23.87-1.01 1.5-1.93 1.5z"/><path fill="#f0f4c3" d="M11.097 9.613h5.346v2.9l3.782-3.775L24 12.513l-3.775 3.782h2.9v5.346h-5.346v-5.346h2.446l-3.782-3.782v2.446h-5.346V9.613m0 6.682h5.346v5.346h-5.346z"/></symbol><symbol id="components" viewBox="0 0 24 24"><path fill="#c0ca33" d="M10 4H4c-1.11 0-2 .89-2 2v12c0 1.097.903 2 2 2h16c1.097 0 2-.903 2-2V8a2 2 0 0 0-2-2h-8l-2-2z"/><path fill="#f0f4c3" d="M11.097 9.613h5.346v2.9l3.782-3.775L24 12.513l-3.775 3.782h2.9v5.346h-5.346v-5.346h2.446l-3.782-3.782v2.446h-5.346V9.613m0 6.682h5.346v5.346h-5.346z"/></symbol><symbol id="folder-open" viewBox="0 0 48 48"><path fill="#FFA000" d="M38 12H22l-4-4H8c-2.2 0-4 1.8-4 4v24c0 2.2 1.8 4 4 4h31c1.7 0 3-1.3 3-3V16c0-2.2-1.8-4-4-4z"/><path fill="#FFCA28" d="M42.2 18H15.3c-1.9 0-3.6 1.4-3.9 3.3L8 40h31.7c1.9 0 3.6-1.4 3.9-3.3l2.5-14c.5-2.4-1.4-4.7-3.9-4.7z"/></symbol><symbol id="folder" viewBox="0 0 1024 1024"><path fill="#FFA000" d="M853.333 256h-384L384 170.667H170.667c-46.934 0-85.334 38.4-85.334 85.333v170.667h853.334v-85.334c0-46.933-38.4-85.333-85.334-85.333z"/><path fill="#FFCA28" d="M853.333 256H170.667c-46.934 0-85.334 38.4-85.334 85.333V768c0 46.933 38.4 85.333 85.334 85.333h682.666c46.934 0 85.334-38.4 85.334-85.333V341.333c0-46.933-38.4-85.333-85.334-85.333z"/></symbol><symbol id="node_modules-open" viewBox="0 0 24 24"><path fill="#8bc34a" d="M19 20H4a2 2 0 0 1-2-2V6c0-1.11.89-2 2-2h6l2 2h7c1.097 0 2 .903 2 2H4v10l2.14-8h17.07l-2.28 8.5c-.23.87-1.01 1.5-1.93 1.5z"/><path fill="#dcedc8" d="M17.15 8.53l-5.49 3.17c-.21.12-.33.34-.33.57v6.34c0 .24.13.46.33.57l5.49 3.18c.21.12.46.12.66 0l5.49-3.17c.2-.12.33-.34.33-.57v-6.34c0-.24-.13-.46-.33-.57l-5.49-3.18a.656.656 0 0 0-.66 0"/></symbol><symbol id="node_modules" viewBox="0 0 24 24"><path fill="#8bc34a" d="M10 4H4c-1.11 0-2 .89-2 2v12c0 1.097.903 2 2 2h16c1.097 0 2-.903 2-2V8a2 2 0 0 0-2-2h-8l-2-2z"/><path fill="#dcedc8" d="M17.15 8.53l-5.49 3.17c-.21.12-.33.34-.33.57v6.34c0 .24.13.46.33.57l5.49 3.18c.21.12.46.12.66 0l5.49-3.17c.2-.12.33-.34.33-.57v-6.34c0-.24-.13-.46-.33-.57l-5.49-3.18a.656.656 0 0 0-.66 0"/></symbol><symbol id="src-open" viewBox="0 0 24 24"><path fill="#4caf50" d="M19 20H4a2 2 0 0 1-2-2V6c0-1.11.89-2 2-2h6l2 2h7c1.097 0 2 .903 2 2H4v10l2.14-8h17.07l-2.28 8.5c-.23.87-1.01 1.5-1.93 1.5z"/><path fill="#c8e6c9" d="M15.597 21.678a.637.637 0 0 1-.147-.018.739.739 0 0 1-.513-.857l1.915-10.2a.734.734 0 0 1 .314-.482.63.63 0 0 1 .494-.087.74.74 0 0 1 .514.858l-1.92 10.2a.73.73 0 0 1-.312.481.632.632 0 0 1-.345.105zm3.839-1.445h-.048a.658.658 0 0 1-.472-.267.78.78 0 0 1 .07-1.003l3.292-3.218L19 12.75a.78.78 0 0 1-.1-1 .663.663 0 0 1 .468-.283.636.636 0 0 1 .501.167l3.866 3.534a.78.78 0 0 1 .102 1 .743.743 0 0 1-.1.116l-3.85 3.763a.646.646 0 0 1-.451.187zm-5.764.002a.648.648 0 0 1-.452-.189l-3.853-3.765a.775.775 0 0 1 .006-1.108l3.867-3.533a.623.623 0 0 1 .495-.169c.19.022.361.125.47.283a.78.78 0 0 1-.1 1.002l-3.276 2.993 3.292 3.216c.267.27.297.699.071 1.003a.656.656 0 0 1-.473.267z"/></symbol><symbol id="src" viewBox="0 0 24 24"><path fill="#4caf50" d="M10 4H4c-1.11 0-2 .89-2 2v12c0 1.097.903 2 2 2h16c1.097 0 2-.903 2-2V8a2 2 0 0 0-2-2h-8l-2-2z"/><path fill="#c8e6c9" d="M15.597 21.678a.637.637 0 0 1-.147-.018.739.739 0 0 1-.513-.857l1.915-10.2a.734.734 0 0 1 .314-.482.63.63 0 0 1 .495-.087.74.74 0 0 1 .513.858l-1.92 10.2a.73.73 0 0 1-.312.481.632.632 0 0 1-.345.105zm3.839-1.445h-.048a.658.658 0 0 1-.472-.267.78.78 0 0 1 .07-1.003l3.293-3.218L19 12.75a.78.78 0 0 1-.1-1 .663.663 0 0 1 .467-.283.636.636 0 0 1 .501.167l3.866 3.534a.78.78 0 0 1 .102 1 .743.743 0 0 1-.1.116l-3.85 3.763a.646.646 0 0 1-.451.187zm-5.764.002a.648.648 0 0 1-.451-.189l-3.854-3.765a.775.775 0 0 1 .006-1.108l3.867-3.533a.623.623 0 0 1 .495-.169c.19.022.361.125.47.283a.78.78 0 0 1-.099 1.002l-3.277 2.993 3.293 3.216c.266.27.297.699.07 1.003a.656.656 0 0 1-.472.267z"/></symbol><symbol id="css" viewBox="0 0 24 24"><path fill="#42a5f5" d="M5 3l-.65 3.34h13.59L17.5 8.5H3.92l-.66 3.33h13.59l-.76 3.81-5.48 1.81-4.75-1.81.33-1.64H2.85l-.79 4 7.85 3 9.05-3 1.2-6.03.24-1.21L21.94 3H5z"/></symbol><symbol id="html" viewBox="0 0 24 24"><path fill="#e44d26" d="M12 17.56l4.07-1.13.55-6.1H9.38L9.2 8.3h7.6l.2-1.99H7l.56 6.01h6.89l-.23 2.58-2.22.6-2.22-.6-.14-1.66h-2l.29 3.19L12 17.56M4.07 3h15.86L18.5 19.2 12 21l-6.5-1.8L4.07 3z"/></symbol><symbol id="js" viewBox="0 0 24 24"><path fill="#ffca28" d="M3 3h18v18H3V3m4.73 15.04c.4.85 1.19 1.55 2.54 1.55 1.5 0 2.53-.8 2.53-2.55v-5.78h-1.7V17c0 .86-.35 1.08-.9 1.08-.58 0-.82-.4-1.09-.87l-1.38.83m5.98-.18c.5.98 1.51 1.73 3.09 1.73 1.6 0 2.8-.83 2.8-2.36 0-1.41-.81-2.04-2.25-2.66l-.42-.18c-.73-.31-1.04-.52-1.04-1.02 0-.41.31-.73.81-.73.48 0 .8.21 1.09.73l1.31-.87c-.55-.96-1.33-1.33-2.4-1.33-1.51 0-2.48.96-2.48 2.23 0 1.38.81 2.03 2.03 2.55l.42.18c.78.34 1.24.55 1.24 1.13 0 .48-.45.83-1.15.83-.83 0-1.31-.43-1.67-1.03l-1.38.8z"/></symbol><symbol id="jsx" viewBox="0 0 24 24"><path fill="#00bcd4" d="M12 10.11c1.03 0 1.87.84 1.87 1.89 0 1-.84 1.85-1.87 1.85S10.13 13 10.13 12c0-1.05.84-1.89 1.87-1.89M7.37 20c.63.38 2.01-.2 3.6-1.7-.52-.59-1.03-1.23-1.51-1.9a22.7 22.7 0 0 1-2.4-.36c-.51 2.14-.32 3.61.31 3.96m.71-5.74l-.29-.51c-.11.29-.22.58-.29.86.27.06.57.11.88.16l-.3-.51m6.54-.76l.81-1.5-.81-1.5c-.3-.53-.62-1-.91-1.47C13.17 9 12.6 9 12 9s-1.17 0-1.71.03c-.29.47-.61.94-.91 1.47L8.57 12l.81 1.5c.3.53.62 1 .91 1.47.54.03 1.11.03 1.71.03s1.17 0 1.71-.03c.29-.47.61-.94.91-1.47M12 6.78c-.19.22-.39.45-.59.72h1.18c-.2-.27-.4-.5-.59-.72m0 10.44c.19-.22.39-.45.59-.72h-1.18c.2.27.4.5.59.72M16.62 4c-.62-.38-2 .2-3.59 1.7.52.59 1.03 1.23 1.51 1.9.82.08 1.63.2 2.4.36.51-2.14.32-3.61-.32-3.96m-.7 5.74l.29.51c.11-.29.22-.58.29-.86-.27-.06-.57-.11-.88-.16l.3.51m1.45-7.05c1.47.84 1.63 3.05 1.01 5.63 2.54.75 4.37 1.99 4.37 3.68s-1.83 2.93-4.37 3.68c.62 2.58.46 4.79-1.01 5.63-1.46.84-3.45-.12-5.37-1.95-1.92 1.83-3.91 2.79-5.38 1.95-1.46-.84-1.62-3.05-1-5.63-2.54-.75-4.37-1.99-4.37-3.68s1.83-2.93 4.37-3.68c-.62-2.58-.46-4.79 1-5.63 1.47-.84 3.46.12 5.38 1.95 1.92-1.83 3.91-2.79 5.37-1.95M17.08 12c.34.75.64 1.5.89 2.26 2.1-.63 3.28-1.53 3.28-2.26s-1.18-1.63-3.28-2.26c-.25.76-.55 1.51-.89 2.26M6.92 12c-.34-.75-.64-1.5-.89-2.26-2.1.63-3.28 1.53-3.28 2.26s1.18 1.63 3.28 2.26c.25-.76.55-1.51.89-2.26m9 2.26l-.3.51c.31-.05.61-.1.88-.16-.07-.28-.18-.57-.29-.86l-.29.51m-2.89 4.04c1.59 1.5 2.97 2.08 3.59 1.7.64-.35.83-1.82.32-3.96-.77.16-1.58.28-2.4.36-.48.67-.99 1.31-1.51 1.9M8.08 9.74l.3-.51c-.31.05-.61.1-.88.16.07.28.18.57.29.86l.29-.51m2.89-4.04C9.38 4.2 8 3.62 7.37 4c-.63.35-.82 1.82-.31 3.96a22.7 22.7 0 0 1 2.4-.36c.48-.67.99-1.31 1.51-1.9z"/></symbol><symbol id="sass" viewBox="0 0 500 500"><path fill="#ec407a" stroke="#ec407a" stroke-width="16.29" d="M419.047 96.227C406.855 48.39 327.54 32.67 252.472 59.336c-44.68 15.876-93.029 40.785-127.81 73.31-41.349 38.675-47.943 72.329-45.216 86.396 9.583 49.621 77.585 82.068 105.535 106.125v.144c-8.246 4.051-68.565 34.585-82.684 65.8-14.893 32.932 2.372 56.556 13.804 59.742 35.424 9.858 71.765-7.866 91.312-37.01 18.852-28.12 17.279-64.422 9.085-82.488 11.3-2.976 24.476-4.313 41.218-2.36 47.248 5.52 56.517 35.017 54.747 47.367s-11.681 19.14-14.998 21.185-4.326 2.767-4.05 4.287c.406 2.216 1.94 2.137 4.758 1.652 3.894-.655 24.804-10.042 25.709-32.827 1.14-28.934-26.587-61.302-75.684-60.45-20.216.354-32.933 2.268-42.123 5.69a82.505 82.505 0 0 0-2.084-2.308c-30.35-32.382-86.46-55.285-84.088-98.823.866-15.824 6.372-57.5 107.817-108.053 83.104-41.414 149.638-30.009 161.135-4.759 16.427 36.079-35.554 103.137-121.857 112.812-32.88 3.684-50.199-9.06-54.499-13.805-4.536-4.995-5.204-5.218-6.909-4.287-2.753 1.534-1.01 5.939 0 8.574 2.583 6.712 13.15 18.603 31.176 24.516 15.863 5.204 54.459 8.062 101.157-9.99 52.282-20.255 93.12-76.523 81.124-123.549zM196.584 339.995c3.92 14.5 3.487 28.016-.564 40.247a65.289 65.289 0 0 1-3.225 7.97c-3.12 6.477-7.315 12.534-12.441 18.132-15.654 17.07-37.508 23.533-46.882 18.092-10.12-5.873-5.047-29.943 13.084-49.11 19.52-20.635 47.602-33.902 47.602-33.902l-.039-.08 2.465-1.35z"/></symbol><symbol id="scss" viewBox="0 0 500 500"><path fill="#ec407a" stroke="#ec407a" stroke-width="16.29" d="M419.047 96.227C406.855 48.39 327.54 32.67 252.472 59.336c-44.68 15.876-93.029 40.785-127.81 73.31-41.349 38.675-47.943 72.329-45.216 86.396 9.583 49.621 77.585 82.068 105.535 106.125v.144c-8.246 4.051-68.565 34.585-82.684 65.8-14.893 32.932 2.372 56.556 13.804 59.742 35.424 9.858 71.765-7.866 91.312-37.01 18.852-28.12 17.279-64.422 9.085-82.488 11.3-2.976 24.476-4.313 41.218-2.36 47.248 5.52 56.517 35.017 54.747 47.367s-11.681 19.14-14.998 21.185-4.326 2.767-4.05 4.287c.406 2.216 1.94 2.137 4.758 1.652 3.894-.655 24.804-10.042 25.709-32.827 1.14-28.934-26.587-61.302-75.684-60.45-20.216.354-32.933 2.268-42.123 5.69a82.505 82.505 0 0 0-2.084-2.308c-30.35-32.382-86.46-55.285-84.088-98.823.866-15.824 6.372-57.5 107.817-108.053 83.104-41.414 149.638-30.009 161.135-4.759 16.427 36.079-35.554 103.137-121.857 112.812-32.88 3.684-50.199-9.06-54.499-13.805-4.536-4.995-5.204-5.218-6.909-4.287-2.753 1.534-1.01 5.939 0 8.574 2.583 6.712 13.15 18.603 31.176 24.516 15.863 5.204 54.459 8.062 101.157-9.99 52.282-20.255 93.12-76.523 81.124-123.549zM196.584 339.995c3.92 14.5 3.487 28.016-.564 40.247a65.289 65.289 0 0 1-3.225 7.97c-3.12 6.477-7.315 12.534-12.441 18.132-15.654 17.07-37.508 23.533-46.882 18.092-10.12-5.873-5.047-29.943 13.084-49.11 19.52-20.635 47.602-33.902 47.602-33.902l-.039-.08 2.465-1.35z"/></symbol><symbol id="ts" viewBox="0 0 500 500"><path fill="#0288d1" d="M46 46v408h408V46H46zm310.02 198.17v.006c3.912.012 8.359.213 11.703.576 13.619 1.473 24.225 7.349 33.248 18.416 4.493 5.513 6.03 7.925 5.703 8.957-.211.666-3.294 2.874-13.096 9.38-9.629 6.393-12.73 8.308-13.45 8.308-.731 0-2.253-1.566-4.446-4.573-4.225-5.789-8.538-8.431-15.205-9.312-7.17-.95-13.602 1.31-16.752 5.888-2.693 3.912-3.1 10.206-.96 14.78 2.48 5.297 6.968 8.226 24.167 15.767 19.836 8.698 29.888 14.651 37.209 22.04 7.884 7.956 11.878 17.142 13.105 30.136.599 6.334-.133 13.84-1.945 19.943-4.445 14.961-16.44 25.916-34.02 31.072-4.86 1.425-9.382 2.276-13.855 2.604-6.829.503-16.603.226-22.486-.63-14.884-2.169-31.686-10.83-40.064-20.65-4.113-4.821-9.364-12.755-9.364-14.15 0-.674.334-1.057 1.656-1.897 3.922-2.492 26.394-15.338 26.83-15.338.264 0 1.438 1.383 2.608 3.074 2.651 3.828 9.17 10.407 12.484 12.602 2.707 1.793 6.169 3.232 10.279 4.271 2.354.587 3.6.692 8.736.692 5.248-.002 6.324-.09 8.672-.721 6.21-1.671 11.057-5.13 13.111-9.354.9-1.825.918-2.053.918-6.48v-4.59l-1.104-2.19c-2.673-5.306-8.433-8.947-26.645-16.835-8.365-3.624-18.61-8.733-22.61-11.275-9.129-5.801-15.456-12.433-19.608-20.551-4.13-8.073-4.745-11.078-4.755-23.217-.01-9.503-.026-9.386 1.941-15.451 1.785-5.504 5.439-11.652 9.473-15.94 8.05-8.557 19.813-14.057 32.406-15.151 1.61-.153 3.768-.212 6.115-.205zm-108.36 1.877h.004c24.253.012 38.156.096 38.379.236.42.26.473 2.371.473 15.842v15.541l-24.201.088-24.201.088v68.713c0 37.793-.077 68.938-.182 69.213-.171.463-2.033.498-17.78.498h-17.587l-.182-.71c-.117-.39-.203-31.537-.205-69.214l-.006-68.504-24.2-.086-24.202-.088v-15.357c0-12.18.084-15.442.409-15.766.333-.343 12.684-.431 65.902-.484 10.26-.01 19.495-.015 27.58-.01z"/></symbol><symbol id="tsx" viewBox="0 0 24 24"><path fill="#0288d1" d="M12 10.11c1.03 0 1.87.84 1.87 1.89 0 1-.84 1.85-1.87 1.85S10.13 13 10.13 12c0-1.05.84-1.89 1.87-1.89M7.37 20c.63.38 2.01-.2 3.6-1.7-.52-.59-1.03-1.23-1.51-1.9a22.7 22.7 0 0 1-2.4-.36c-.51 2.14-.32 3.61.31 3.96m.71-5.74l-.29-.51c-.11.29-.22.58-.29.86.27.06.57.11.88.16l-.3-.51m6.54-.76l.81-1.5-.81-1.5c-.3-.53-.62-1-.91-1.47C13.17 9 12.6 9 12 9s-1.17 0-1.71.03c-.29.47-.61.94-.91 1.47L8.57 12l.81 1.5c.3.53.62 1 .91 1.47.54.03 1.11.03 1.71.03s1.17 0 1.71-.03c.29-.47.61-.94.91-1.47M12 6.78c-.19.22-.39.45-.59.72h1.18c-.2-.27-.4-.5-.59-.72m0 10.44c.19-.22.39-.45.59-.72h-1.18c.2.27.4.5.59.72M16.62 4c-.62-.38-2 .2-3.59 1.7.52.59 1.03 1.23 1.51 1.9.82.08 1.63.2 2.4.36.51-2.14.32-3.61-.32-3.96m-.7 5.74l.29.51c.11-.29.22-.58.29-.86-.27-.06-.57-.11-.88-.16l.3.51m1.45-7.05c1.47.84 1.63 3.05 1.01 5.63 2.54.75 4.37 1.99 4.37 3.68s-1.83 2.93-4.37 3.68c.62 2.58.46 4.79-1.01 5.63-1.46.84-3.45-.12-5.37-1.95-1.92 1.83-3.91 2.79-5.38 1.95-1.46-.84-1.62-3.05-1-5.63-2.54-.75-4.37-1.99-4.37-3.68s1.83-2.93 4.37-3.68c-.62-2.58-.46-4.79 1-5.63 1.47-.84 3.46.12 5.38 1.95 1.92-1.83 3.91-2.79 5.37-1.95M17.08 12c.34.75.64 1.5.89 2.26 2.1-.63 3.28-1.53 3.28-2.26s-1.18-1.63-3.28-2.26c-.25.76-.55 1.51-.89 2.26M6.92 12c-.34-.75-.64-1.5-.89-2.26-2.1.63-3.28 1.53-3.28 2.26s1.18 1.63 3.28 2.26c.25-.76.55-1.51.89-2.26m9 2.26l-.3.51c.31-.05.61-.1.88-.16-.07-.28-.18-.57-.29-.86l-.29.51m-2.89 4.04c1.59 1.5 2.97 2.08 3.59 1.7.64-.35.83-1.82.32-3.96-.77.16-1.58.28-2.4.36-.48.67-.99 1.31-1.51 1.9M8.08 9.74l.3-.51c-.31.05-.61.1-.88.16.07.28.18.57.29.86l.29-.51m2.89-4.04C9.38 4.2 8 3.62 7.37 4c-.63.35-.82 1.82-.31 3.96a22.7 22.7 0 0 1 2.4-.36c.48-.67.99-1.31 1.51-1.9z"/></symbol><symbol id="arrow-down" viewBox="0 0 451.85 451.85"><path fill="#E5B8B8" d="M225.923 354.706c-8.098 0-16.195-3.092-22.369-9.263L9.27 151.157c-12.359-12.359-12.359-32.397 0-44.751 12.354-12.354 32.388-12.354 44.748 0l171.905 171.915 171.906-171.909c12.359-12.354 32.391-12.354 44.744 0 12.365 12.354 12.365 32.392 0 44.751L248.292 345.449c-6.177 6.172-14.274 9.257-22.369 9.257z" data-original="#000000"/></symbol><symbol id="arrow-right" viewBox="0 0 492 492"><path fill="#E5B8B8" d="M382.678 226.804L163.73 7.86C158.666 2.792 151.906 0 144.698 0s-13.968 2.792-19.032 7.86l-16.124 16.12c-10.492 10.504-10.492 27.576 0 38.064L293.398 245.9l-184.06 184.06c-5.064 5.068-7.86 11.824-7.86 19.028 0 7.212 2.796 13.968 7.86 19.04l16.124 16.116c5.068 5.068 11.824 7.86 19.032 7.86s13.968-2.792 19.032-7.86L382.678 265c5.076-5.084 7.864-11.872 7.848-19.088.016-7.244-2.772-14.028-7.848-19.108z" data-original="#000000"/></symbol><symbol id="file" viewBox="0 0 64 64"><path fill="#10F14D" d="M55.994 13.886c-.018-.151-.196-1.502-1.115-2.422L44.536 1.122C43.617.203 42.265.024 42.114.007A.872.872 0 0 0 42 0H13c-2.757 0-5 2.243-5 5v54c0 2.757 2.243 5 5 5h38c2.757 0 5-2.243 5-5V14c0-.038-.002-.076-.006-.114zm-2.53-1.008c.035.035.06.082.091.122H46c-1.654 0-3-1.346-3-3V2.445c.04.031.086.056.122.091zM51 62H13c-1.654 0-3-1.346-3-3V5c0-1.654 1.346-3 3-3h28v8c0 2.757 2.243 5 5 5h8v44c0 1.654-1.346 3-3 3z" data-original="#000000"/></symbol><symbol id="folder" viewBox="0 0 64 64"><path fill="#FFB125" d="M59 10H24.4a1 1 0 0 0-.78 1.625l4.4 5.5A4.973 4.973 0 0 0 31.92 19H63a1 1 0 0 0 1-1v-3a5.006 5.006 0 0 0-5-5z" data-original="#ffb125"/><path fill="#FCD354" d="M64 17H31.92a2.995 2.995 0 0 1-2.338-1.124L24.58 9.624A6.969 6.969 0 0 0 19.12 7H5a5 5 0 0 0-5 5v40a5 5 0 0 0 5 5h54a5 5 0 0 0 5-5z" data-original="#fcd354"/></symbol></svg>
